<svg width="26" height="24" viewBox="0 0 26 24" fill="none" xmlns="http://www.w3.org/2000/svg">
<path d="M1.75 10.5C0.921573 10.5 0.25 11.1716 0.25 12C0.25 12.8284 0.921573 13.5 1.75 13.5L1.75 10.5ZM25.3107 13.0607C25.8964 12.4749 25.8964 11.5251 25.3107 10.9393L15.7647 1.3934C15.1789 0.807611 14.2292 0.807611 13.6434 1.3934C13.0576 1.97918 13.0576 2.92893 13.6434 3.51472L22.1287 12L13.6434 20.4853C13.0576 21.0711 13.0576 22.0208 13.6434 22.6066C14.2292 23.1924 15.1789 23.1924 15.7647 22.6066L25.3107 13.0607ZM1.75 13.5L24.25 13.5L24.25 10.5L1.75 10.5L1.75 13.5Z" fill="#21201F"/>
</svg>
